<?xml version="1.0" encoding="UTF-8" standalone="no"?>
<!DOCTYPE svg PUBLIC "-//W3C//DTD SVG 1.1//EN"
 "http://www.w3.org/Graphics/SVG/1.1/DTD/svg11.dtd">
<!-- Generated by graphviz version 2.38.0 (20140413.2041)
 -->
<!-- Title: GatkPreprocess Pages: 1 -->
<svg width="392pt" height="356pt"
 viewBox="0.00 0.00 392.00 356.00" xmlns="http://www.w3.org/2000/svg" xmlns:xlink="http://www.w3.org/1999/xlink">
<g id="graph0" class="graph" transform="scale(1 1) rotate(0) translate(4 352)">
<title>GatkPreprocess</title>
<polygon fill="white" stroke="none" points="-4,4 -4,-352 388,-352 388,4 -4,4"/>
<g id="clust1" class="cluster"><title>cluster_2</title>
<polygon fill="none" stroke="black" points="28,-64 28,-116 351,-116 351,-64 28,-64"/>
</g>
<g id="clust2" class="cluster"><title>cluster_0</title>
<polygon fill="none" stroke="black" points="8,-208 8,-340 376,-340 376,-208 8,-208"/>
</g>
<g id="clust3" class="cluster"><title>cluster_1</title>
<polygon fill="none" stroke="black" points="16,-280 16,-332 368,-332 368,-280 16,-280"/>
</g>
<!-- call scatterList -->
<g id="node1" class="node"><title>call scatterList</title>
<ellipse fill="none" stroke="black" cx="119" cy="-162" rx="62.2891" ry="18"/>
<text text-anchor="middle" x="119" y="-158.3" font-family="Times,serif" font-size="14.00">call scatterList</text>
</g>
<!-- scatter (scatterList.scatters) -->
<g id="node2" class="node"><title>scatter (scatterList.scatters)</title>
<text text-anchor="middle" x="119" y="-86.3" font-family="Times,serif" font-size="14.00">scatter (scatterList.scatters)</text>
</g>
<!-- call scatterList&#45;&gt;scatter (scatterList.scatters) -->
<g id="edge1" class="edge"><title>call scatterList&#45;&gt;scatter (scatterList.scatters)</title>
<path fill="none" stroke="black" d="M113.122,-144.055C112.304,-136.346 112.061,-127.027 112.395,-118.364"/>
<polygon fill="black" stroke="black" points="113.636,-126.581 113.087,-116 106.918,-124.613 113.636,-126.581"/>
</g>
<!-- call scatterList&#45;&gt;scatter (scatterList.scatters) -->
<g id="edge3" class="edge"><title>call scatterList&#45;&gt;scatter (scatterList.scatters)</title>
<path fill="none" stroke="black" d="M124.878,-144.055C125.696,-136.346 125.939,-127.027 125.605,-118.364"/>
<polygon fill="black" stroke="black" points="129.089,-118.012 124.913,-108.275 122.106,-118.491 129.089,-118.012"/>
</g>
<!-- call baseRecalibrator -->
<g id="node3" class="node"><title>call baseRecalibrator</title>
<ellipse fill="none" stroke="black" cx="272" cy="-234" rx="85.2851" ry="18"/>
<text text-anchor="middle" x="272" y="-230.3" font-family="Times,serif" font-size="14.00">call baseRecalibrator</text>
</g>
<!-- call gatherBqsr -->
<g id="node4" class="node"><title>call gatherBqsr</title>
<ellipse fill="none" stroke="black" cx="272" cy="-162" rx="64.189" ry="18"/>
<text text-anchor="middle" x="272" y="-158.3" font-family="Times,serif" font-size="14.00">call gatherBqsr</text>
</g>
<!-- call baseRecalibrator&#45;&gt;call gatherBqsr -->
<g id="edge2" class="edge"><title>call baseRecalibrator&#45;&gt;call gatherBqsr</title>
<path fill="none" stroke="black" d="M272,-215.697C272,-207.983 272,-198.712 272,-190.112"/>
<polygon fill="black" stroke="black" points="275.5,-190.104 272,-180.104 268.5,-190.104 275.5,-190.104"/>
</g>
<!-- call gatherBqsr&#45;&gt;scatter (scatterList.scatters) -->
<g id="edge7" class="edge"><title>call gatherBqsr&#45;&gt;scatter (scatterList.scatters)</title>
<path fill="none" stroke="black" d="M239.926,-146.326C223.102,-138.628 201.889,-128.923 181.947,-119.799"/>
<polygon fill="black" stroke="black" points="183.139,-116.496 172.59,-115.518 180.227,-122.861 183.139,-116.496"/>
</g>
<!-- call applyBqsr -->
<g id="node5" class="node"><title>call applyBqsr</title>
<ellipse fill="none" stroke="black" cx="281" cy="-90" rx="61.99" ry="18"/>
<text text-anchor="middle" x="281" y="-86.3" font-family="Times,serif" font-size="14.00">call applyBqsr</text>
</g>
<!-- call gatherBqsr&#45;&gt;call applyBqsr -->
<g id="edge6" class="edge"><title>call gatherBqsr&#45;&gt;call applyBqsr</title>
<path fill="none" stroke="black" d="M274.225,-143.697C275.217,-135.983 276.408,-126.712 277.514,-118.112"/>
<polygon fill="black" stroke="black" points="280.997,-118.469 278.801,-108.104 274.054,-117.576 280.997,-118.469"/>
</g>
<!-- call gatherBamFiles -->
<g id="node6" class="node"><title>call gatherBamFiles</title>
<ellipse fill="none" stroke="black" cx="281" cy="-18" rx="81.7856" ry="18"/>
<text text-anchor="middle" x="281" y="-14.3" font-family="Times,serif" font-size="14.00">call gatherBamFiles</text>
</g>
<!-- call applyBqsr&#45;&gt;call gatherBamFiles -->
<g id="edge4" class="edge"><title>call applyBqsr&#45;&gt;call gatherBamFiles</title>
<path fill="none" stroke="black" d="M281,-71.6966C281,-63.9827 281,-54.7125 281,-46.1124"/>
<polygon fill="black" stroke="black" points="284.5,-46.1043 281,-36.1043 277.5,-46.1044 284.5,-46.1043"/>
</g>
<!-- call splitNCigarReads -->
<g id="node7" class="node"><title>call splitNCigarReads</title>
<ellipse fill="none" stroke="black" cx="272" cy="-306" rx="88.2844" ry="18"/>
<text text-anchor="middle" x="272" y="-302.3" font-family="Times,serif" font-size="14.00">call splitNCigarReads</text>
</g>
<!-- call splitNCigarReads&#45;&gt;call baseRecalibrator -->
<g id="edge5" class="edge"><title>call splitNCigarReads&#45;&gt;call baseRecalibrator</title>
<path fill="none" stroke="black" d="M272,-287.697C272,-279.983 272,-270.712 272,-262.112"/>
<polygon fill="black" stroke="black" points="275.5,-262.104 272,-252.104 268.5,-262.104 275.5,-262.104"/>
</g>
<!-- if (splitSplicedReads2) -->
<g id="node8" class="node"><title>if (splitSplicedReads2)</title>
<text text-anchor="middle" x="95" y="-302.3" font-family="Times,serif" font-size="14.00">if (splitSplicedReads2)</text>
</g>
</g>
</svg>
