<?xml version="1.0" encoding="UTF-8" standalone="no"?>
<!DOCTYPE svg PUBLIC "-//W3C//DTD SVG 1.1//EN"
 "http://www.w3.org/Graphics/SVG/1.1/DTD/svg11.dtd">
<!-- Generated by graphviz version 2.38.0 (20140413.2041)
 -->
<!-- Title: Gvcf Pages: 1 -->
<svg width="422pt" height="188pt"
 viewBox="0.00 0.00 422.00 188.00" xmlns="http://www.w3.org/2000/svg" xmlns:xlink="http://www.w3.org/1999/xlink">
<g id="graph0" class="graph" transform="scale(1 1) rotate(0) translate(4 184)">
<title>Gvcf</title>
<polygon fill="white" stroke="none" points="-4,4 -4,-184 418,-184 418,4 -4,4"/>
<g id="clust1" class="cluster"><title>cluster_0</title>
<polygon fill="none" stroke="black" points="8,-64 8,-116 406,-116 406,-64 8,-64"/>
</g>
<!-- call haplotypeCallerGvcf -->
<g id="node1" class="node"><title>call haplotypeCallerGvcf</title>
<ellipse fill="none" stroke="black" cx="299" cy="-90" rx="99.3824" ry="18"/>
<text text-anchor="middle" x="299" y="-86.3" font-family="Times,serif" font-size="14.00">call haplotypeCallerGvcf</text>
</g>
<!-- call gatherGvcfs -->
<g id="node2" class="node"><title>call gatherGvcfs</title>
<ellipse fill="none" stroke="black" cx="299" cy="-18" rx="68.7879" ry="18"/>
<text text-anchor="middle" x="299" y="-14.3" font-family="Times,serif" font-size="14.00">call gatherGvcfs</text>
</g>
<!-- call haplotypeCallerGvcf&#45;&gt;call gatherGvcfs -->
<g id="edge1" class="edge"><title>call haplotypeCallerGvcf&#45;&gt;call gatherGvcfs</title>
<path fill="none" stroke="black" d="M299,-71.6966C299,-63.9827 299,-54.7125 299,-46.1124"/>
<polygon fill="black" stroke="black" points="302.5,-46.1043 299,-36.1043 295.5,-46.1044 302.5,-46.1043"/>
</g>
<!-- call scatterList -->
<g id="node3" class="node"><title>call scatterList</title>
<ellipse fill="none" stroke="black" cx="99" cy="-162" rx="62.2891" ry="18"/>
<text text-anchor="middle" x="99" y="-158.3" font-family="Times,serif" font-size="14.00">call scatterList</text>
</g>
<!-- scatter (scatterList.scatters) -->
<g id="node4" class="node"><title>scatter (scatterList.scatters)</title>
<text text-anchor="middle" x="99" y="-86.3" font-family="Times,serif" font-size="14.00">scatter (scatterList.scatters)</text>
</g>
<!-- call scatterList&#45;&gt;scatter (scatterList.scatters) -->
<g id="edge2" class="edge"><title>call scatterList&#45;&gt;scatter (scatterList.scatters)</title>
<path fill="none" stroke="black" d="M99,-143.697C99,-135.983 99,-126.712 99,-118.112"/>
<polygon fill="black" stroke="black" points="102.5,-126 99,-116 95.5005,-126 102.5,-126"/>
</g>
</g>
</svg>
