<?xml version="1.0" encoding="UTF-8" standalone="no"?>
<!DOCTYPE svg PUBLIC "-//W3C//DTD SVG 1.1//EN"
 "http://www.w3.org/Graphics/SVG/1.1/DTD/svg11.dtd">
<!-- Generated by graphviz version 2.38.0 (20140413.2041)
 -->
<!-- Title: JointGenotyping Pages: 1 -->
<svg width="695pt" height="260pt"
 viewBox="0.00 0.00 695.00 260.00" xmlns="http://www.w3.org/2000/svg" xmlns:xlink="http://www.w3.org/1999/xlink">
<g id="graph0" class="graph" transform="scale(1 1) rotate(0) translate(4 256)">
<title>JointGenotyping</title>
<polygon fill="white" stroke="none" points="-4,4 -4,-256 691,-256 691,4 -4,4"/>
<g id="clust2" class="cluster"><title>cluster_1</title>
<polygon fill="none" stroke="black" points="382,-64 382,-116 679,-116 679,-64 382,-64"/>
</g>
<g id="clust1" class="cluster"><title>cluster_0</title>
<polygon fill="none" stroke="black" points="8,-64 8,-188 374,-188 374,-64 8,-64"/>
</g>
<!-- call combineGVCFs -->
<g id="node1" class="node"><title>call combineGVCFs</title>
<ellipse fill="none" stroke="black" cx="283" cy="-162" rx="83.3857" ry="18"/>
<text text-anchor="middle" x="283" y="-158.3" font-family="Times,serif" font-size="14.00">call combineGVCFs</text>
</g>
<!-- if (mergeGvcfFiles) -->
<g id="node2" class="node"><title>if (mergeGvcfFiles)</title>
<text text-anchor="middle" x="608" y="-86.3" font-family="Times,serif" font-size="14.00">if (mergeGvcfFiles)</text>
</g>
<!-- call combineGVCFs&#45;&gt;if (mergeGvcfFiles) -->
<g id="edge1" class="edge"><title>call combineGVCFs&#45;&gt;if (mergeGvcfFiles)</title>
<path fill="none" stroke="black" d="M352.115,-151.871C400.855,-144.722 467.771,-133.482 527.157,-118.531"/>
<polygon fill="black" stroke="black" points="528.187,-121.88 537,-116 526.443,-115.101 528.187,-121.88"/>
</g>
<!-- call genotypeGvcfs -->
<g id="node3" class="node"><title>call genotypeGvcfs</title>
<ellipse fill="none" stroke="black" cx="283" cy="-90" rx="79.0865" ry="18"/>
<text text-anchor="middle" x="283" y="-86.3" font-family="Times,serif" font-size="14.00">call genotypeGvcfs</text>
</g>
<!-- call combineGVCFs&#45;&gt;call genotypeGvcfs -->
<g id="edge2" class="edge"><title>call combineGVCFs&#45;&gt;call genotypeGvcfs</title>
<path fill="none" stroke="black" d="M283,-143.697C283,-135.983 283,-126.712 283,-118.112"/>
<polygon fill="black" stroke="black" points="286.5,-118.104 283,-108.104 279.5,-118.104 286.5,-118.104"/>
</g>
<!-- call gatherGvcfs -->
<g id="node4" class="node"><title>call gatherGvcfs</title>
<ellipse fill="none" stroke="black" cx="459" cy="-90" rx="68.7879" ry="18"/>
<text text-anchor="middle" x="459" y="-86.3" font-family="Times,serif" font-size="14.00">call gatherGvcfs</text>
</g>
<!-- call combineGVCFs&#45;&gt;call gatherGvcfs -->
<g id="edge3" class="edge"><title>call combineGVCFs&#45;&gt;call gatherGvcfs</title>
<path fill="none" stroke="black" d="M321.189,-145.811C348.257,-135.045 384.7,-120.551 413.311,-109.172"/>
<polygon fill="black" stroke="black" points="414.691,-112.39 422.689,-105.442 412.104,-105.885 414.691,-112.39"/>
</g>
<!-- call gatherVcfs -->
<g id="node5" class="node"><title>call gatherVcfs</title>
<ellipse fill="none" stroke="black" cx="283" cy="-18" rx="64.189" ry="18"/>
<text text-anchor="middle" x="283" y="-14.3" font-family="Times,serif" font-size="14.00">call gatherVcfs</text>
</g>
<!-- call genotypeGvcfs&#45;&gt;call gatherVcfs -->
<g id="edge4" class="edge"><title>call genotypeGvcfs&#45;&gt;call gatherVcfs</title>
<path fill="none" stroke="black" d="M283,-71.6966C283,-63.9827 283,-54.7125 283,-46.1124"/>
<polygon fill="black" stroke="black" points="286.5,-46.1043 283,-36.1043 279.5,-46.1044 286.5,-46.1043"/>
</g>
<!-- call scatterList -->
<g id="node6" class="node"><title>call scatterList</title>
<ellipse fill="none" stroke="black" cx="99" cy="-234" rx="62.2891" ry="18"/>
<text text-anchor="middle" x="99" y="-230.3" font-family="Times,serif" font-size="14.00">call scatterList</text>
</g>
<!-- scatter (scatterList.scatters) -->
<g id="node7" class="node"><title>scatter (scatterList.scatters)</title>
<text text-anchor="middle" x="99" y="-158.3" font-family="Times,serif" font-size="14.00">scatter (scatterList.scatters)</text>
</g>
<!-- call scatterList&#45;&gt;scatter (scatterList.scatters) -->
<g id="edge5" class="edge"><title>call scatterList&#45;&gt;scatter (scatterList.scatters)</title>
<path fill="none" stroke="black" d="M99,-215.697C99,-207.983 99,-198.712 99,-190.112"/>
<polygon fill="black" stroke="black" points="102.5,-198 99,-188 95.5005,-198 102.5,-198"/>
</g>
</g>
</svg>
