<?xml version="1.0" encoding="UTF-8" standalone="no"?>
<!DOCTYPE svg PUBLIC "-//W3C//DTD SVG 1.1//EN"
 "http://www.w3.org/Graphics/SVG/1.1/DTD/svg11.dtd">
<!-- Generated by graphviz version 2.38.0 (20140413.2041)
 -->
<!-- Title: library Pages: 1 -->
<svg width="502pt" height="332pt"
 viewBox="0.00 0.00 502.00 332.00" xmlns="http://www.w3.org/2000/svg" xmlns:xlink="http://www.w3.org/1999/xlink">
<g id="graph0" class="graph" transform="scale(1 1) rotate(0) translate(4 328)">
<title>library</title>
<polygon fill="white" stroke="none" points="-4,4 -4,-328 497.995,-328 497.995,4 -4,4"/>
<g id="clust1" class="cluster"><title>cluster_0</title>
<polygon fill="none" stroke="black" points="8,-200 8,-268 464,-268 464,-200 8,-200"/>
</g>
<g id="clust2" class="cluster"><title>cluster_1</title>
<polygon fill="none" stroke="black" points="217,-208 217,-260 456,-260 456,-208 217,-208"/>
</g>
<!-- call bqsr -->
<g id="node1" class="node"><title>call bqsr</title>
<ellipse fill="none" stroke="black" cx="331" cy="-90" rx="40.8928" ry="18"/>
<text text-anchor="middle" x="331" y="-86.3" font-family="Times,serif" font-size="14.00">call bqsr</text>
</g>
<!-- call flagstatPreprocess -->
<g id="node2" class="node"><title>call flagstatPreprocess</title>
<ellipse fill="none" stroke="black" cx="331" cy="-18" rx="89.8845" ry="18"/>
<text text-anchor="middle" x="331" y="-14.3" font-family="Times,serif" font-size="14.00">call flagstatPreprocess</text>
</g>
<!-- call bqsr&#45;&gt;call flagstatPreprocess -->
<g id="edge1" class="edge"><title>call bqsr&#45;&gt;call flagstatPreprocess</title>
<path fill="none" stroke="black" d="M331,-71.6966C331,-63.9827 331,-54.7125 331,-46.1124"/>
<polygon fill="black" stroke="black" points="334.5,-46.1043 331,-36.1043 327.5,-46.1044 334.5,-46.1043"/>
</g>
<!-- call markdup -->
<g id="node3" class="node"><title>call markdup</title>
<ellipse fill="none" stroke="black" cx="386" cy="-162" rx="57.6901" ry="18"/>
<text text-anchor="middle" x="386" y="-158.3" font-family="Times,serif" font-size="14.00">call markdup</text>
</g>
<!-- call markdup&#45;&gt;call bqsr -->
<g id="edge5" class="edge"><title>call markdup&#45;&gt;call bqsr</title>
<path fill="none" stroke="black" d="M372.966,-144.411C366.185,-135.781 357.763,-125.062 350.248,-115.497"/>
<polygon fill="black" stroke="black" points="352.871,-113.171 343.941,-107.47 347.367,-117.496 352.871,-113.171"/>
</g>
<!-- call flagstat -->
<g id="node4" class="node"><title>call flagstat</title>
<ellipse fill="none" stroke="black" cx="442" cy="-90" rx="51.9908" ry="18"/>
<text text-anchor="middle" x="442" y="-86.3" font-family="Times,serif" font-size="14.00">call flagstat</text>
</g>
<!-- call markdup&#45;&gt;call flagstat -->
<g id="edge2" class="edge"><title>call markdup&#45;&gt;call flagstat</title>
<path fill="none" stroke="black" d="M399.271,-144.411C406.176,-135.781 414.75,-125.062 422.402,-115.497"/>
<polygon fill="black" stroke="black" points="425.31,-117.465 428.824,-107.47 419.844,-113.092 425.31,-117.465"/>
</g>
<!-- call readgroup -->
<g id="node5" class="node"><title>call readgroup</title>
<ellipse fill="none" stroke="black" cx="386" cy="-234" rx="61.99" ry="18"/>
<text text-anchor="middle" x="386" y="-230.3" font-family="Times,serif" font-size="14.00">call readgroup</text>
</g>
<!-- call readgroup&#45;&gt;call markdup -->
<g id="edge3" class="edge"><title>call readgroup&#45;&gt;call markdup</title>
<path fill="none" stroke="black" d="M386,-215.697C386,-207.983 386,-198.712 386,-190.112"/>
<polygon fill="black" stroke="black" points="389.5,-190.104 386,-180.104 382.5,-190.104 389.5,-190.104"/>
</g>
<!-- call readgroupConfigs -->
<g id="node6" class="node"><title>call readgroupConfigs</title>
<ellipse fill="none" stroke="black" cx="112" cy="-306" rx="89.0842" ry="18"/>
<text text-anchor="middle" x="112" y="-302.3" font-family="Times,serif" font-size="14.00">call readgroupConfigs</text>
</g>
<!-- scatter (readgroupConfigs.keys) -->
<g id="node7" class="node"><title>scatter (readgroupConfigs.keys)</title>
<text text-anchor="middle" x="112" y="-230.3" font-family="Times,serif" font-size="14.00">scatter (readgroupConfigs.keys)</text>
</g>
<!-- call readgroupConfigs&#45;&gt;scatter (readgroupConfigs.keys) -->
<g id="edge4" class="edge"><title>call readgroupConfigs&#45;&gt;scatter (readgroupConfigs.keys)</title>
<path fill="none" stroke="black" d="M112,-287.697C112,-284.683 112,-281.433 112,-278.077"/>
<polygon fill="black" stroke="black" points="115.5,-277.829 112,-267.829 108.5,-277.829 115.5,-277.829"/>
</g>
<!-- if (rg != &quot;&quot;) -->
<g id="node8" class="node"><title>if (rg != &quot;&quot;)</title>
<text text-anchor="middle" x="266" y="-230.3" font-family="Times,serif" font-size="14.00">if (rg != &quot;&quot;)</text>
</g>
</g>
</svg>
