<?xml version="1.0" encoding="UTF-8" standalone="no"?>
<!DOCTYPE svg PUBLIC "-//W3C//DTD SVG 1.1//EN"
 "http://www.w3.org/Graphics/SVG/1.1/DTD/svg11.dtd">
<!-- Generated by graphviz version 2.38.0 (20140413.2041)
 -->
<!-- Title: pipeline Pages: 1 -->
<svg width="357pt" height="188pt"
 viewBox="0.00 0.00 357.49 188.00" xmlns="http://www.w3.org/2000/svg" xmlns:xlink="http://www.w3.org/1999/xlink">
<g id="graph0" class="graph" transform="scale(1 1) rotate(0) translate(4 184)">
<title>pipeline</title>
<polygon fill="white" stroke="none" points="-4,4 -4,-184 353.493,-184 353.493,4 -4,4"/>
<g id="clust1" class="cluster"><title>cluster_0</title>
<polygon fill="none" stroke="black" points="8,-64 8,-116 324,-116 324,-64 8,-64"/>
</g>
<!-- call sample -->
<g id="node1" class="node"><title>call sample</title>
<ellipse fill="none" stroke="black" cx="265" cy="-90" rx="51.1914" ry="18"/>
<text text-anchor="middle" x="265" y="-86.3" font-family="Times,serif" font-size="14.00">call sample</text>
</g>
<!-- call JointGenotyping -->
<g id="node2" class="node"><title>call JointGenotyping</title>
<ellipse fill="none" stroke="black" cx="265" cy="-18" rx="84.485" ry="18"/>
<text text-anchor="middle" x="265" y="-14.3" font-family="Times,serif" font-size="14.00">call JointGenotyping</text>
</g>
<!-- call sample&#45;&gt;call JointGenotyping -->
<g id="edge1" class="edge"><title>call sample&#45;&gt;call JointGenotyping</title>
<path fill="none" stroke="black" d="M265,-71.6966C265,-63.9827 265,-54.7125 265,-46.1124"/>
<polygon fill="black" stroke="black" points="268.5,-46.1043 265,-36.1043 261.5,-46.1044 268.5,-46.1043"/>
</g>
<!-- call samplesConfigs -->
<g id="node3" class="node"><title>call samplesConfigs</title>
<ellipse fill="none" stroke="black" cx="106" cy="-162" rx="82.5854" ry="18"/>
<text text-anchor="middle" x="106" y="-158.3" font-family="Times,serif" font-size="14.00">call samplesConfigs</text>
</g>
<!-- scatter (samplesConfigs.keys) -->
<g id="node4" class="node"><title>scatter (samplesConfigs.keys)</title>
<text text-anchor="middle" x="106" y="-86.3" font-family="Times,serif" font-size="14.00">scatter (samplesConfigs.keys)</text>
</g>
<!-- call samplesConfigs&#45;&gt;scatter (samplesConfigs.keys) -->
<g id="edge2" class="edge"><title>call samplesConfigs&#45;&gt;scatter (samplesConfigs.keys)</title>
<path fill="none" stroke="black" d="M106,-143.697C106,-135.983 106,-126.712 106,-118.112"/>
<polygon fill="black" stroke="black" points="109.5,-126 106,-116 102.5,-126 109.5,-126"/>
</g>
</g>
</svg>
