<?xml version="1.0" encoding="UTF-8" standalone="no"?>
<!DOCTYPE svg PUBLIC "-//W3C//DTD SVG 1.1//EN"
 "http://www.w3.org/Graphics/SVG/1.1/DTD/svg11.dtd">
<!-- Generated by graphviz version 2.38.0 (20140413.2041)
 -->
<!-- Title: QC Pages: 1 -->
<svg width="1204pt" height="420pt"
 viewBox="0.00 0.00 1204.00 420.00" xmlns="http://www.w3.org/2000/svg" xmlns:xlink="http://www.w3.org/1999/xlink">
<g id="graph0" class="graph" transform="scale(1 1) rotate(0) translate(4 416)">
<title>QC</title>
<polygon fill="white" stroke="none" points="-4,4 -4,-416 1200,-416 1200,4 -4,4"/>
<g id="clust3" class="cluster"><title>cluster_0</title>
<polygon fill="none" stroke="black" points="8,-152 8,-204 586,-204 586,-152 8,-152"/>
</g>
<g id="clust4" class="cluster"><title>cluster_3</title>
<polygon fill="none" stroke="black" points="532,-8 532,-60 782,-60 782,-8 532,-8"/>
</g>
<g id="clust1" class="cluster"><title>cluster_1</title>
<polygon fill="none" stroke="black" points="594,-144 594,-348 1188,-348 1188,-144 594,-144"/>
</g>
<g id="clust2" class="cluster"><title>cluster_2</title>
<polygon fill="none" stroke="black" points="602,-152 602,-204 1180,-204 1180,-152 602,-152"/>
</g>
<!-- Array[String]+ adapterListRead2 -->
<g id="node1" class="node"><title>Array[String]+ adapterListRead2</title>
<ellipse fill="none" stroke="black" cx="1044" cy="-178" rx="128.077" ry="18"/>
<text text-anchor="middle" x="1044" y="-174.3" font-family="Times,serif" font-size="14.00">Array[String]+ adapterListRead2</text>
</g>
<!-- call cutadapt -->
<g id="node2" class="node"><title>call cutadapt</title>
<ellipse fill="none" stroke="black" cx="718" cy="-34" rx="55.7903" ry="18"/>
<text text-anchor="middle" x="718" y="-30.3" font-family="Times,serif" font-size="14.00">call cutadapt</text>
</g>
<!-- Array[String]+ adapterListRead2&#45;&gt;call cutadapt -->
<g id="edge1" class="edge"><title>Array[String]+ adapterListRead2&#45;&gt;call cutadapt</title>
<path fill="none" stroke="black" d="M1022.97,-159.934C997.587,-140.096 952.944,-107.581 910,-88 866.676,-68.2457 814.411,-54.4087 775.357,-45.8386"/>
<polygon fill="black" stroke="black" points="775.73,-42.3393 765.219,-43.6668 774.264,-49.184 775.73,-42.3393"/>
</g>
<!-- Boolean runCutadapt -->
<g id="node6" class="node"><title>Boolean runCutadapt</title>
<ellipse fill="none" stroke="black" cx="592" cy="-106" rx="85.5853" ry="18"/>
<text text-anchor="middle" x="592" y="-102.3" font-family="Times,serif" font-size="14.00">Boolean runCutadapt</text>
</g>
<!-- Array[String]+ adapterListRead2&#45;&gt;Boolean runCutadapt -->
<g id="edge14" class="edge"><title>Array[String]+ adapterListRead2&#45;&gt;Boolean runCutadapt</title>
<path fill="none" stroke="black" d="M987.663,-161.825C963.041,-155.61 933.734,-148.772 907,-144 830.848,-130.406 743.415,-120.59 680.015,-114.498"/>
<polygon fill="black" stroke="black" points="680.337,-111.013 670.051,-113.553 679.676,-117.982 680.337,-111.013"/>
</g>
<!-- if (runCutadapt) -->
<g id="node7" class="node"><title>if (runCutadapt)</title>
<text text-anchor="middle" x="592" y="-30.3" font-family="Times,serif" font-size="14.00">if (runCutadapt)</text>
</g>
<!-- Array[String]+ adapterListRead2&#45;&gt;if (runCutadapt) -->
<g id="edge15" class="edge"><title>Array[String]+ adapterListRead2&#45;&gt;if (runCutadapt)</title>
<path fill="none" stroke="black" d="M987.106,-161.865C912.588,-141.626 777.862,-103.605 662.667,-63.3959"/>
<polygon fill="black" stroke="black" points="663.595,-60.0122 653,-60 661.275,-66.6166 663.595,-60.0122"/>
</g>
<!-- call extractAdaptersRead2 -->
<g id="node3" class="node"><title>call extractAdaptersRead2</title>
<ellipse fill="none" stroke="black" cx="780" cy="-250" rx="103.982" ry="18"/>
<text text-anchor="middle" x="780" y="-246.3" font-family="Times,serif" font-size="14.00">call extractAdaptersRead2</text>
</g>
<!-- call extractAdaptersRead2&#45;&gt;Array[String]+ adapterListRead2 -->
<g id="edge2" class="edge"><title>call extractAdaptersRead2&#45;&gt;Array[String]+ adapterListRead2</title>
<path fill="none" stroke="black" d="M834.381,-234.581C875.778,-223.604 932.972,-208.439 977.161,-196.722"/>
<polygon fill="black" stroke="black" points="978.183,-200.073 986.952,-194.126 976.388,-193.306 978.183,-200.073"/>
</g>
<!-- if (length(extractAdaptersRead2.adapterList) &gt; 0) -->
<g id="node11" class="node"><title>if (length(extractAdaptersRead2.adapterList) &gt; 0)</title>
<text text-anchor="middle" x="754" y="-174.3" font-family="Times,serif" font-size="14.00">if (length(extractAdaptersRead2.adapterList) &gt; 0)</text>
</g>
<!-- call extractAdaptersRead2&#45;&gt;if (length(extractAdaptersRead2.adapterList) &gt; 0) -->
<g id="edge10" class="edge"><title>call extractAdaptersRead2&#45;&gt;if (length(extractAdaptersRead2.adapterList) &gt; 0)</title>
<path fill="none" stroke="black" d="M773.573,-231.697C770.645,-223.813 767.113,-214.304 763.86,-205.546"/>
<polygon fill="black" stroke="black" points="771.839,-208.719 762.353,-204 766.826,-213.605 771.839,-208.719"/>
</g>
<!-- call extractAdaptersRead1 -->
<g id="node4" class="node"><title>call extractAdaptersRead1</title>
<ellipse fill="none" stroke="black" cx="434" cy="-250" rx="103.982" ry="18"/>
<text text-anchor="middle" x="434" y="-246.3" font-family="Times,serif" font-size="14.00">call extractAdaptersRead1</text>
</g>
<!-- if (length(extractAdaptersRead1.adapterList) &gt; 0) -->
<g id="node5" class="node"><title>if (length(extractAdaptersRead1.adapterList) &gt; 0)</title>
<text text-anchor="middle" x="434" y="-174.3" font-family="Times,serif" font-size="14.00">if (length(extractAdaptersRead1.adapterList) &gt; 0)</text>
</g>
<!-- call extractAdaptersRead1&#45;&gt;if (length(extractAdaptersRead1.adapterList) &gt; 0) -->
<g id="edge3" class="edge"><title>call extractAdaptersRead1&#45;&gt;if (length(extractAdaptersRead1.adapterList) &gt; 0)</title>
<path fill="none" stroke="black" d="M434,-231.697C434,-223.983 434,-214.712 434,-206.112"/>
<polygon fill="black" stroke="black" points="437.5,-214 434,-204 430.5,-214 437.5,-214"/>
</g>
<!-- Array[String]+ adapterListRead1 -->
<g id="node9" class="node"><title>Array[String]+ adapterListRead1</title>
<ellipse fill="none" stroke="black" cx="144" cy="-178" rx="128.077" ry="18"/>
<text text-anchor="middle" x="144" y="-174.3" font-family="Times,serif" font-size="14.00">Array[String]+ adapterListRead1</text>
</g>
<!-- call extractAdaptersRead1&#45;&gt;Array[String]+ adapterListRead1 -->
<g id="edge9" class="edge"><title>call extractAdaptersRead1&#45;&gt;Array[String]+ adapterListRead1</title>
<path fill="none" stroke="black" d="M376.011,-235.003C329.774,-223.842 264.806,-208.16 215.376,-196.229"/>
<polygon fill="black" stroke="black" points="215.934,-192.763 205.392,-193.819 214.292,-199.568 215.934,-192.763"/>
</g>
<!-- Boolean runCutadapt&#45;&gt;if (runCutadapt) -->
<g id="edge4" class="edge"><title>Boolean runCutadapt&#45;&gt;if (runCutadapt)</title>
<path fill="none" stroke="black" d="M592,-87.6966C592,-79.9827 592,-70.7125 592,-62.1124"/>
<polygon fill="black" stroke="black" points="595.5,-69.9998 592,-60 588.5,-70.0002 595.5,-69.9998"/>
</g>
<!-- call fastqcRead1 -->
<g id="node8" class="node"><title>call fastqcRead1</title>
<ellipse fill="none" stroke="black" cx="434" cy="-322" rx="69.5877" ry="18"/>
<text text-anchor="middle" x="434" y="-318.3" font-family="Times,serif" font-size="14.00">call fastqcRead1</text>
</g>
<!-- call fastqcRead1&#45;&gt;call extractAdaptersRead1 -->
<g id="edge5" class="edge"><title>call fastqcRead1&#45;&gt;call extractAdaptersRead1</title>
<path fill="none" stroke="black" d="M434,-303.697C434,-295.983 434,-286.712 434,-278.112"/>
<polygon fill="black" stroke="black" points="437.5,-278.104 434,-268.104 430.5,-278.104 437.5,-278.104"/>
</g>
<!-- Array[String]+ adapterListRead1&#45;&gt;call cutadapt -->
<g id="edge7" class="edge"><title>Array[String]+ adapterListRead1&#45;&gt;call cutadapt</title>
<path fill="none" stroke="black" d="M197.555,-161.639C222.677,-155.07 253.152,-148.004 281,-144 325.706,-137.572 650.838,-151.06 687,-124 706.188,-109.642 713.567,-82.5794 716.369,-62.0503"/>
<polygon fill="black" stroke="black" points="719.859,-62.3309 717.455,-52.0123 712.899,-61.5777 719.859,-62.3309"/>
</g>
<!-- Array[String]+ adapterListRead1&#45;&gt;Boolean runCutadapt -->
<g id="edge13" class="edge"><title>Array[String]+ adapterListRead1&#45;&gt;Boolean runCutadapt</title>
<path fill="none" stroke="black" d="M200.673,-161.76C225.227,-155.571 254.39,-148.771 281,-144 355.78,-130.594 441.574,-120.8 504.083,-114.668"/>
<polygon fill="black" stroke="black" points="504.685,-118.127 514.301,-113.678 504.01,-111.159 504.685,-118.127"/>
</g>
<!-- Array[String]+ adapterListRead1&#45;&gt;if (runCutadapt) -->
<g id="edge6" class="edge"><title>Array[String]+ adapterListRead1&#45;&gt;if (runCutadapt)</title>
<path fill="none" stroke="black" d="M193.656,-161.261C275.89,-135.195 440.168,-83.1255 529.93,-54.6739"/>
<polygon fill="black" stroke="black" points="524.805,-61.3535 532,-53.5764 521.525,-55.1692 524.805,-61.3535"/>
</g>
<!-- call getFastqcConfiguration -->
<g id="node10" class="node"><title>call getFastqcConfiguration</title>
<ellipse fill="none" stroke="black" cx="574" cy="-394" rx="108.581" ry="18"/>
<text text-anchor="middle" x="574" y="-390.3" font-family="Times,serif" font-size="14.00">call getFastqcConfiguration</text>
</g>
<!-- call getFastqcConfiguration&#45;&gt;call extractAdaptersRead2 -->
<g id="edge8" class="edge"><title>call getFastqcConfiguration&#45;&gt;call extractAdaptersRead2</title>
<path fill="none" stroke="black" d="M572.769,-375.903C572.316,-356.035 574.751,-323.492 593,-304 614.642,-280.883 645.546,-267.593 676.014,-260.03"/>
<polygon fill="black" stroke="black" points="676.912,-263.415 685.878,-257.771 675.349,-256.592 676.912,-263.415"/>
</g>
<!-- call getFastqcConfiguration&#45;&gt;call extractAdaptersRead1 -->
<g id="edge12" class="edge"><title>call getFastqcConfiguration&#45;&gt;call extractAdaptersRead1</title>
<path fill="none" stroke="black" d="M564.876,-375.846C554.186,-356.805 535.097,-325.878 513,-304 501.062,-292.18 486.138,-281.385 472.487,-272.668"/>
<polygon fill="black" stroke="black" points="474.087,-269.542 463.743,-267.249 470.399,-275.492 474.087,-269.542"/>
</g>
<!-- if (defined(read2)) -->
<g id="node13" class="node"><title>if (defined(read2))</title>
<text text-anchor="middle" x="661" y="-318.3" font-family="Times,serif" font-size="14.00">if (defined(read2))</text>
</g>
<!-- call getFastqcConfiguration&#45;&gt;if (defined(read2)) -->
<g id="edge16" class="edge"><title>call getFastqcConfiguration&#45;&gt;if (defined(read2))</title>
<path fill="none" stroke="black" d="M595.06,-376.055C603.193,-369.511 612.767,-361.808 622.06,-354.331"/>
<polygon fill="black" stroke="black" points="624.514,-356.849 630.111,-347.853 620.126,-351.395 624.514,-356.849"/>
</g>
<!-- call fastqcRead2 -->
<g id="node12" class="node"><title>call fastqcRead2</title>
<ellipse fill="none" stroke="black" cx="807" cy="-322" rx="69.5877" ry="18"/>
<text text-anchor="middle" x="807" y="-318.3" font-family="Times,serif" font-size="14.00">call fastqcRead2</text>
</g>
<!-- call fastqcRead2&#45;&gt;call extractAdaptersRead2 -->
<g id="edge11" class="edge"><title>call fastqcRead2&#45;&gt;call extractAdaptersRead2</title>
<path fill="none" stroke="black" d="M800.464,-304.055C797.425,-296.176 793.738,-286.617 790.335,-277.794"/>
<polygon fill="black" stroke="black" points="793.528,-276.346 786.663,-268.275 786.997,-278.865 793.528,-276.346"/>
</g>
</g>
</svg>
