<?xml version="1.0" encoding="UTF-8" standalone="no"?>
<!DOCTYPE svg PUBLIC "-//W3C//DTD SVG 1.1//EN"
 "http://www.w3.org/Graphics/SVG/1.1/DTD/svg11.dtd">
<!-- Generated by graphviz version 2.38.0 (20140413.2041)
 -->
<!-- Title: sample Pages: 1 -->
<svg width="442pt" height="188pt"
 viewBox="0.00 0.00 442.00 188.00" xmlns="http://www.w3.org/2000/svg" xmlns:xlink="http://www.w3.org/1999/xlink">
<g id="graph0" class="graph" transform="scale(1 1) rotate(0) translate(4 184)">
<title>sample</title>
<polygon fill="white" stroke="none" points="-4,4 -4,-184 438,-184 438,4 -4,4"/>
<g id="clust1" class="cluster"><title>cluster_0</title>
<polygon fill="none" stroke="black" points="8,-56 8,-124 426,-124 426,-56 8,-56"/>
</g>
<g id="clust2" class="cluster"><title>cluster_1</title>
<polygon fill="none" stroke="black" points="206,-64 206,-116 418,-116 418,-64 206,-64"/>
</g>
<!-- call library -->
<g id="node1" class="node"><title>call library</title>
<ellipse fill="none" stroke="black" cx="361" cy="-90" rx="49.2915" ry="18"/>
<text text-anchor="middle" x="361" y="-86.3" font-family="Times,serif" font-size="14.00">call library</text>
</g>
<!-- call createGvcf -->
<g id="node2" class="node"><title>call createGvcf</title>
<ellipse fill="none" stroke="black" cx="361" cy="-18" rx="64.189" ry="18"/>
<text text-anchor="middle" x="361" y="-14.3" font-family="Times,serif" font-size="14.00">call createGvcf</text>
</g>
<!-- call library&#45;&gt;call createGvcf -->
<g id="edge1" class="edge"><title>call library&#45;&gt;call createGvcf</title>
<path fill="none" stroke="black" d="M361,-71.6966C361,-63.9827 361,-54.7125 361,-46.1124"/>
<polygon fill="black" stroke="black" points="364.5,-46.1043 361,-36.1043 357.5,-46.1044 364.5,-46.1043"/>
</g>
<!-- call librariesConfigs -->
<g id="node3" class="node"><title>call librariesConfigs</title>
<ellipse fill="none" stroke="black" cx="254" cy="-162" rx="82.5854" ry="18"/>
<text text-anchor="middle" x="254" y="-158.3" font-family="Times,serif" font-size="14.00">call librariesConfigs</text>
</g>
<!-- call librariesConfigs&#45;&gt;call library -->
<g id="edge2" class="edge"><title>call librariesConfigs&#45;&gt;call library</title>
<path fill="none" stroke="black" d="M278.817,-144.765C293.819,-134.95 313.093,-122.341 329.204,-111.801"/>
<polygon fill="black" stroke="black" points="331.33,-114.593 337.783,-106.189 327.498,-108.735 331.33,-114.593"/>
</g>
<!-- if (lb != &quot;&quot;) -->
<g id="node4" class="node"><title>if (lb != &quot;&quot;)</title>
<text text-anchor="middle" x="254" y="-86.3" font-family="Times,serif" font-size="14.00">if (lb != &quot;&quot;)</text>
</g>
<!-- call librariesConfigs&#45;&gt;if (lb != &quot;&quot;) -->
<g id="edge3" class="edge"><title>call librariesConfigs&#45;&gt;if (lb != &quot;&quot;)</title>
<path fill="none" stroke="black" d="M254,-143.697C254,-135.983 254,-126.712 254,-118.112"/>
<polygon fill="black" stroke="black" points="257.5,-126 254,-116 250.5,-126 257.5,-126"/>
</g>
<!-- scatter (librariesConfigs.keys) -->
<g id="node5" class="node"><title>scatter (librariesConfigs.keys)</title>
<text text-anchor="middle" x="106" y="-86.3" font-family="Times,serif" font-size="14.00">scatter (librariesConfigs.keys)</text>
</g>
<!-- call librariesConfigs&#45;&gt;scatter (librariesConfigs.keys) -->
<g id="edge4" class="edge"><title>call librariesConfigs&#45;&gt;scatter (librariesConfigs.keys)</title>
<path fill="none" stroke="black" d="M221.154,-145.465C210.285,-140.324 197.678,-134.361 184.876,-128.306"/>
<polygon fill="black" stroke="black" points="186.078,-125.003 175.542,-123.891 183.085,-131.331 186.078,-125.003"/>
</g>
</g>
</svg>
